<svg width="23" height="23" viewBox="0 0 23 23" fill="none" xmlns="http://www.w3.org/2000/svg">
<path d="M9.45308 15.662L5.11365 11.3216L6.55978 9.87544L9.45308 12.7677L15.2376 6.98215L16.6848 8.42931L9.45308 15.662Z" fill="#002041"/>
<path fill-rule="evenodd" clip-rule="evenodd" d="M0 11.25C0 5.03693 5.03693 0 11.25 0C17.4631 0 22.5 5.03693 22.5 11.25C22.5 17.4631 17.4631 22.5 11.25 22.5C5.03693 22.5 0 17.4631 0 11.25ZM11.25 20.4545C10.0412 20.4545 8.84432 20.2165 7.72757 19.7539C6.61083 19.2913 5.59612 18.6133 4.7414 17.7586C3.88668 16.9039 3.20868 15.8892 2.74611 14.7724C2.28354 13.6557 2.04545 12.4588 2.04545 11.25C2.04545 10.0412 2.28354 8.84432 2.74611 7.72757C3.20868 6.61083 3.88668 5.59612 4.7414 4.7414C5.59612 3.88668 6.61083 3.20868 7.72757 2.74611C8.84432 2.28354 10.0412 2.04545 11.25 2.04545C13.6912 2.04545 16.0324 3.01522 17.7586 4.7414C19.4848 6.46759 20.4545 8.8088 20.4545 11.25C20.4545 13.6912 19.4848 16.0324 17.7586 17.7586C16.0324 19.4848 13.6912 20.4545 11.25 20.4545Z" fill="#002041"/>
</svg>
