<svg width="31" height="31" viewBox="0 0 31 31" fill="none" xmlns="http://www.w3.org/2000/svg">
<path d="M13.7012 29.9456C17.852 30.3087 21.5073 29.1646 24.6671 26.5133C27.8268 23.8619 29.5883 20.4608 29.9515 16.31C30.3146 12.1592 29.1705 8.50391 26.5191 5.34413C23.8678 2.18436 20.4667 0.422901 16.3159 0.0597522C15.9285 0.0258583 15.5465 0.00638166 15.1699 0.00132191C14.7934 -0.00373784 14.4234 0.00571591 14.0599 0.029684C15.1243 0.931435 15.9394 2.05564 16.5053 3.40231C17.0712 4.74898 17.2882 6.16886 17.1565 7.66195C16.9386 10.1524 15.8817 12.1931 13.9859 13.7839C12.09 15.3747 9.89683 16.0612 7.40634 15.8433C5.88437 15.7101 4.51662 15.2486 3.30306 14.4587C2.08951 13.6689 1.13107 12.6721 0.427746 11.4684C0.340929 11.8233 0.267365 12.1861 0.207058 12.5567C0.146751 12.9273 0.0996028 13.3068 0.065612 13.6953C-0.297537 17.8461 0.84657 21.5014 3.49793 24.6612C6.1493 27.821 9.55039 29.5824 13.7012 29.9456Z" fill="url(#paint0_linear_2030_204)"/>
<defs>
<linearGradient id="paint0_linear_2030_204" x1="28.9178" y1="5.17756" x2="5.07797" y2="36.7198" gradientUnits="userSpaceOnUse">
<stop stop-color="#002041"/>
<stop offset="1" stop-color="#3A6EA5"/>
</linearGradient>
</defs>
</svg>
