<svg width="40" height="40" viewBox="0 0 40 40" fill="none" xmlns="http://www.w3.org/2000/svg">
<rect width="40" height="40" rx="20" fill="#FFECB9"/>
<path d="M20.0271 8.19167C30.2362 8.19167 36.617 18.9446 31.5124 27.547C30.3484 29.5085 28.6742 31.1374 26.6581 32.2699C24.642 33.4025 22.3551 33.9987 20.0271 33.9988C9.81795 33.9988 3.43723 23.2458 8.54181 14.6434C9.7058 12.6819 11.38 11.053 13.3961 9.9205C15.4121 8.78798 17.6991 8.19172 20.0271 8.19167Z" fill="url(#paint0_linear_2030_72)"/>
<path d="M13.1984 6.71637C13.3938 7.04566 13.4467 7.437 13.3456 7.80428C13.2444 8.17156 12.9975 8.48471 12.659 8.67484C11.126 9.53991 9.76417 10.6644 8.63756 11.9954C8.51674 12.1468 8.36595 12.273 8.19409 12.3668C8.02224 12.4605 7.83282 12.5197 7.63703 12.541C7.44124 12.5622 7.24306 12.5451 7.0542 12.4905C6.86534 12.436 6.68964 12.3451 6.5375 12.2234C6.38535 12.1016 6.25984 11.9514 6.16839 11.7816C6.07694 11.6118 6.02141 11.426 6.00507 11.2349C5.98874 11.0439 6.01194 10.8517 6.0733 10.6695C6.13466 10.4874 6.23293 10.3191 6.36231 10.1745C7.71013 8.57639 9.34295 7.22768 11.1825 6.19306C11.35 6.09864 11.5351 6.03728 11.727 6.01248C11.919 5.98768 12.1141 5.99993 12.3012 6.04853C12.4882 6.09713 12.6636 6.18113 12.8173 6.29572C12.971 6.41031 13.1 6.55325 13.1969 6.71637H13.1984ZM28.8687 6.19306C30.7086 7.22711 32.342 8.57534 33.6903 10.1731C33.9256 10.4679 34.0335 10.8404 33.9909 11.2114C33.9484 11.5823 33.7588 11.9225 33.4625 12.1596C33.1662 12.3968 32.7865 12.5121 32.4042 12.4812C32.0219 12.4502 31.667 12.2754 31.4151 11.9939C30.2906 10.6613 28.9283 9.53694 27.3936 8.67484C27.0554 8.48434 26.8087 8.1709 26.708 7.80348C26.6073 7.43606 26.6607 7.04476 26.8565 6.71565C27.0523 6.38655 27.3745 6.1466 27.7521 6.04859C28.1297 5.95059 28.5304 6.00255 28.8687 6.19306Z" fill="#FFB05F"/>
<path d="M19.9943 15.2786L18.0981 15.2475C18.0812 15.2609 18.0645 15.2747 18.0481 15.2889C17.7783 15.5223 17.606 15.8438 17.5638 16.1926L17.5535 16.3603V22.0752C17.5491 22.3934 17.6537 22.706 17.8511 22.9598L17.9838 23.1089L21.0872 26.1269C21.3518 26.3867 21.7084 26.5384 22.0842 26.5508C22.4599 26.5632 22.8263 26.4354 23.1084 26.1936C23.3904 25.9518 23.5668 25.6142 23.6015 25.25C23.6361 24.8857 23.5263 24.5224 23.2947 24.2344L23.1709 24.0996L20.5007 21.5017V16.3603C20.5007 15.9801 20.3454 15.6154 20.0691 15.3465C20.0449 15.323 20.0199 15.3003 19.9943 15.2786Z" fill="#FFECB9"/>
<path d="M19.9943 15.2786C19.727 15.0523 19.3837 14.9266 19.0271 14.9266C18.6881 14.9266 18.3602 15.0404 18.0981 15.2475L19.9943 15.2786Z" fill="#FFECB9"/>
<defs>
<linearGradient id="paint0_linear_2030_72" x1="6.02786" y1="4.60735" x2="30.1976" y2="38.2171" gradientUnits="userSpaceOnUse">
<stop stop-color="#FF962C"/>
<stop offset="1" stop-color="#FFD19C"/>
</linearGradient>
</defs>
</svg>
