<svg width="16" height="16" viewBox="0 0 16 16" fill="none" xmlns="http://www.w3.org/2000/svg">
<path d="M13.9911 6H9.99363V2C9.99363 1.46957 9.78305 0.960859 9.40821 0.585786C9.03338 0.210714 8.525 0 7.9949 0C7.46481 0 6.95642 0.210714 6.58159 0.585786C6.20676 0.960859 5.99618 1.46957 5.99618 2L6.06713 6H1.99873C1.46863 6 0.960247 6.21071 0.585413 6.58579C0.210579 6.96086 0 7.46957 0 8C0 8.53043 0.210579 9.03914 0.585413 9.41421C0.960247 9.78929 1.46863 10 1.99873 10L6.06713 9.929L5.99618 14C5.99618 14.5304 6.20676 15.0391 6.58159 15.4142C6.95642 15.7893 7.46481 16 7.9949 16C8.525 16 9.03338 15.7893 9.40821 15.4142C9.78305 15.0391 9.99363 14.5304 9.99363 14V9.929L13.9911 10C14.5212 10 15.0296 9.78929 15.4044 9.41421C15.7792 9.03914 15.9898 8.53043 15.9898 8C15.9898 7.46957 15.7792 6.96086 15.4044 6.58579C15.0296 6.21071 14.5212 6 13.9911 6Z" fill="white"/>
</svg>
