<svg width="40" height="40" viewBox="0 0 40 40" fill="none" xmlns="http://www.w3.org/2000/svg">
<rect width="40" height="40" rx="20" fill="#C8D4EB"/>
<path fill-rule="evenodd" clip-rule="evenodd" d="M12.1226 7.1456C11.0089 7.2834 10.4204 7.5369 9.99963 7.9256C9.58025 8.3156 9.30662 8.8616 9.15675 9.8925C9.00275 10.9546 9 12.3612 9 14.3775V25.5185C9.54447 25.167 10.1486 24.9063 10.7861 24.7476C11.5121 24.5669 12.3591 24.5669 13.6008 24.5682H31V14.3788C31 12.3612 30.9972 10.9546 30.8432 9.8925C30.6934 8.8616 30.4198 8.3156 30.0004 7.9256C29.5796 7.5369 28.9911 7.2834 27.8774 7.1456C26.7306 7.0026 25.2126 7 23.0346 7H16.9654C14.7874 7 13.2694 7.0026 12.1226 7.1456ZM12.7936 12.9735C12.7936 12.3911 13.3024 11.9192 13.9307 11.9192H26.0692C26.3676 11.9168 26.6548 12.0262 26.8679 12.2236C27.081 12.421 27.2027 12.6902 27.2064 12.9722C27.2031 13.2545 27.0816 13.524 26.8684 13.7216C26.6552 13.9193 26.3678 14.0289 26.0692 14.0265H13.9307C13.6324 14.0289 13.3452 13.9195 13.1321 13.7221C12.919 13.5247 12.7973 13.2555 12.7936 12.9735ZM13.9307 16.8384C13.6324 16.836 13.3452 16.9454 13.1321 17.1428C12.919 17.3402 12.7973 17.6094 12.7936 17.8914C12.7936 18.4738 13.3024 18.9457 13.9307 18.9457H21.5166C21.8152 18.9485 22.1027 18.8392 22.3162 18.6418C22.5296 18.4444 22.6515 18.175 22.6551 17.8927C22.6519 17.6102 22.5301 17.3405 22.3166 17.1428C22.1032 16.9451 21.8154 16.8356 21.5166 16.8384H13.9307Z" fill="url(#paint0_linear_2030_61)"/>
<path d="M13.7754 26.6755H31C30.9959 28.1445 30.9711 29.2417 30.8446 30.1075C30.6948 31.1384 30.4211 31.6844 30.0018 32.0744C29.581 32.4631 28.9925 32.7166 27.8788 32.8544C26.732 32.9974 25.214 33 23.036 33H16.9654C14.7874 33 13.2694 32.9974 12.1226 32.8557C11.0089 32.7166 10.4204 32.4631 9.99963 32.0744C9.58026 31.6844 9.30663 31.1384 9.15676 30.1075C9.10038 29.7175 9.06326 29.2794 9.04126 28.7815C9.22972 28.2946 9.5406 27.8582 9.94709 27.5102C10.3536 27.1621 10.8435 26.9127 11.3746 26.7834C11.7734 26.6846 12.2918 26.6755 13.7754 26.6755Z" fill="url(#paint1_linear_2030_61)"/>
<defs>
<linearGradient id="paint0_linear_2030_61" x1="4.875" y1="2.83334" x2="22.6175" y2="44.4133" gradientUnits="userSpaceOnUse">
<stop stop-color="#002660"/>
<stop offset="1" stop-color="#70798C"/>
</linearGradient>
<linearGradient id="paint1_linear_2030_61" x1="4.92399" y1="25.2525" x2="7.3237" y2="41.6883" gradientUnits="userSpaceOnUse">
<stop stop-color="#002660"/>
<stop offset="1" stop-color="#70798C"/>
</linearGradient>
</defs>
</svg>
